# Blender 4.5.2 LTS
# www.blender.org
o Cylinder
v -0.000000 -0.037031 -0.896795
v -0.000000 1.677847 -1.068426
v 0.587785 -0.019004 -0.714553
v 0.657282 1.711363 -0.857508
v 0.951057 0.066602 -0.216940
v 1.063505 1.799110 -0.305319
v 0.951057 0.199062 0.412363
v 1.063505 1.907570 0.377224
v 0.587785 0.277531 0.906168
v 0.657282 1.995317 0.929414
v 0.000000 0.307503 1.094784
v -0.000000 2.028833 1.140331
v -0.000000 2.955498 -1.172926
v 0.557462 3.014248 -1.001588
v 0.901993 3.168057 -0.553019
v 0.901993 3.358175 0.001442
v 0.358048 3.660736 1.859866
v -0.000000 3.570734 0.621349
v -0.000000 3.443179 -1.350883
v 0.486141 3.528574 -1.217999
v 0.786593 3.752140 -0.870105
v 0.786593 4.028482 -0.440084
v 0.486141 4.252048 -0.092189
v -0.000000 4.337443 0.040695
v -0.000000 3.936119 -1.655296
v 0.360862 4.002986 -1.558980
v 0.583887 4.178045 -1.306823
v 0.583887 4.394430 -0.995139
v 0.360862 4.569489 -0.742982
v -0.000000 4.636355 -0.646666
v -0.000000 4.443889 -2.152377
v 0.389212 4.503223 -2.036563
v 0.602325 4.645227 -1.757273
v 0.602325 4.822665 -1.383739
v 0.372257 4.969022 -1.102930
v -0.000000 5.024925 -0.995671
v -0.000000 5.264079 -2.069156
v 0.299357 5.268760 -1.968851
v 0.456936 5.266102 -1.718146
v 0.456936 5.268256 -1.406826
v 0.282402 5.271527 -1.166622
v -0.000000 5.272778 -1.074873
v -0.000000 5.752849 -1.604196
v 0.163487 5.737195 -1.587451
v 0.220070 5.756319 -1.462756
v 0.215154 5.640628 -1.276079
v 0.163487 5.563612 -1.145980
v -0.000000 5.554999 -1.129622
v 0.505386 4.915430 -1.955884
v 0.529631 4.960217 -1.772404
v -0.000000 5.148851 -1.035272
v 0.529631 5.045460 -1.395283
v -0.000000 4.866289 -2.204550
v 0.327330 5.120275 -1.134776
v -0.001754 -1.191604 0.265981
v 0.438885 -1.134678 0.363287
v 0.672080 -0.927978 0.648813
v 0.672080 -0.706619 0.983524
v 0.156432 -0.501575 1.296028
v -0.001754 -0.464247 1.355012
v 0.000000 -0.044546 1.275712
v 0.409278 -0.069629 1.164158
v 0.837861 -0.242612 0.714027
v 0.517827 -0.885483 -0.366851
v 0.000000 -0.940227 -0.522097
v 0.837861 -0.563199 0.135095
v 0.215049 -1.255679 -0.495796
v 0.000000 -1.771995 -1.168876
v 0.000000 -1.942104 -0.734361
v 0.148910 -1.917601 -0.919998
v 0.000000 -1.952362 -0.952294
v 0.150509 -2.813988 -0.851820
v -0.002084 -3.368510 -0.449726
v -0.002084 -2.937885 -0.269995
v 0.147174 -3.122931 -0.298621
v -0.002084 -3.155993 -0.264586
v 0.086573 -2.833091 0.361801
v -0.003630 -1.220555 0.644849
v 0.197675 -1.196219 0.686447
v 0.297366 -1.107854 0.808510
v 0.297366 -1.013223 0.951599
v 0.197675 -0.938246 1.066516
v -0.003630 -0.909608 1.110411
v 0.499792 -1.554487 1.284351
v 0.639160 -1.454904 1.410491
v 0.639160 -1.315936 1.620621
v 0.412626 -1.149740 1.833463
v 0.482606 -0.809839 1.786180
v 0.751668 -0.918437 1.503590
v 0.341331 -1.623304 1.434118
v 0.299172 -1.558342 1.530034
v 0.289303 -1.500375 1.617836
v 0.311531 -1.439327 1.713338
v 0.525372 -1.837704 1.817830
v 0.664741 -1.687015 1.873696
v 0.664741 -1.458977 1.980772
v 0.438207 -1.266021 2.055015
v 0.366911 -1.818502 1.981529
v 0.324753 -1.713106 2.029609
v 0.314884 -1.617907 2.074403
v 0.337112 -1.516068 2.124167
v 0.575040 -1.042766 3.026972
v 0.714408 -1.068519 2.868338
v 0.714408 -0.955343 2.676854
v 0.487874 -0.911992 2.599078
v 0.416579 -1.053067 3.003004
v 0.363147 -1.034771 2.908307
v 0.343996 -1.010239 2.830827
v 0.386779 -0.945663 2.729264
v 0.560381 -0.698321 2.976078
v 0.699749 -0.724074 2.817443
v 0.699749 -0.733662 2.676233
v 0.473215 -0.731573 2.605013
v 0.445161 -0.500859 2.923421
v 0.414926 -0.508159 2.840659
v 0.407848 -0.513902 2.765422
v 0.423790 -0.514190 2.713876
v 0.365799 -1.195300 2.647352
v 0.407958 -1.298396 2.716459
v 0.705787 -1.133441 2.532736
v 0.705787 -1.298577 2.630874
v 0.378158 -1.056940 2.675237
v 0.479253 -1.004300 2.555746
v 0.355930 -1.147533 2.624499
v 0.566419 -1.368325 2.671834
v -0.000000 2.799784 0.880840
v 0.607372 2.753651 0.689712
v 0.982749 2.632873 0.189333
v 0.521802 3.882016 0.178911
v -0.000000 3.954088 0.331022
v 0.844293 3.693329 -0.219321
v 0.609990 3.672630 2.144297
v 0.794579 3.555945 0.891901
v 0.259562 3.618762 0.939101
v 0.530317 3.175514 1.178632
v 0.572571 3.793184 0.872053
v 0.755606 3.571564 1.516737
v 0.328128 3.617622 1.580397
v 0.544461 3.344160 1.620983
v 0.578222 3.713326 1.582322
v 0.815447 3.668793 2.144907
v 0.387969 3.703850 2.139336
v 0.604302 3.430833 2.182720
v 0.785527 3.620178 1.830822
v 0.608142 3.755112 1.853436
v 0.358048 4.059279 1.870372
v 0.609990 4.059729 2.082784
v 0.815447 4.055892 2.083394
v 0.387969 4.090949 2.077823
v 0.638063 4.183997 2.063037
v 0.785527 4.025159 1.881838
v 0.608142 4.164384 1.931459
v 0.114826 4.876646 -2.179547
v 0.464565 4.870810 -2.228083
v 0.375493 4.829592 -2.484246
v -0.000000 5.757240 -1.463000
v 0.163487 5.765515 -1.460007
v -0.000000 5.630166 -1.276163
v 0.163487 5.650405 -1.280047
v -0.000000 5.413888 -1.102247
v 0.360732 5.510583 -1.594398
v 0.336045 5.454442 -1.341452
v -0.000000 5.493913 -1.738601
v 0.222945 5.417570 -1.156301
v 0.231422 5.488426 -1.680075
v -0.587785 -0.019004 -0.714553
v -0.657282 1.711363 -0.857508
v -0.951057 0.066602 -0.216940
v -1.063505 1.799110 -0.305319
v -0.951057 0.199062 0.412363
v -1.063505 1.907570 0.377224
v -0.587785 0.277531 0.906168
v -0.657282 1.995317 0.929414
v -0.557462 3.014248 -1.001588
v -0.901993 3.168057 -0.553019
v -0.901993 3.358175 0.001442
v -0.358048 3.660736 1.859866
v -0.486141 3.528574 -1.217999
v -0.786593 3.752140 -0.870105
v -0.786593 4.028482 -0.440084
v -0.486141 4.252048 -0.092189
v -0.360862 4.002986 -1.558980
v -0.583887 4.178045 -1.306823
v -0.583887 4.394430 -0.995139
v -0.360862 4.569489 -0.742982
v -0.389212 4.503223 -2.036563
v -0.602325 4.645227 -1.757273
v -0.602325 4.822665 -1.383739
v -0.372257 4.969022 -1.102930
v -0.299357 5.268760 -1.968851
v -0.456936 5.266102 -1.718146
v -0.456936 5.268256 -1.406826
v -0.282402 5.271527 -1.166622
v -0.163487 5.737195 -1.587451
v -0.220070 5.756319 -1.462756
v -0.215154 5.640628 -1.276079
v -0.163487 5.563612 -1.145980
v -0.505386 4.915430 -1.955884
v -0.529631 4.960217 -1.772404
v -0.529631 5.045460 -1.395283
v -0.327330 5.120275 -1.134776
v -0.438885 -1.134678 0.363287
v -0.672080 -0.927978 0.648813
v -0.672080 -0.706619 0.983524
v -0.156432 -0.501575 1.296028
v -0.409278 -0.069629 1.164158
v -0.837861 -0.242612 0.714027
v -0.517827 -0.885483 -0.366851
v -0.837861 -0.563199 0.135095
v -0.004827 -0.911233 -0.710937
v -0.004827 -1.407704 -0.280293
v -0.215049 -1.255679 -0.495796
v -0.004827 -1.277904 -0.558821
v -0.148910 -1.917601 -0.919998
v -0.001251 -2.862422 -1.136065
v -0.001251 -2.713433 -0.693863
v -0.150509 -2.813988 -0.851820
v -0.001251 -2.861376 -0.854217
v -0.147174 -3.122931 -0.298621
v -0.005749 -2.989135 0.367284
v -0.005749 -2.741063 0.319233
v -0.086573 -2.833091 0.361801
v -0.005749 -2.837798 0.387061
v -0.197675 -1.196219 0.686447
v -0.297366 -1.107854 0.808510
v -0.297366 -1.013223 0.951599
v -0.197675 -0.938246 1.066516
v -0.499792 -1.554487 1.284351
v -0.639160 -1.454904 1.410491
v -0.639160 -1.315936 1.620621
v -0.412626 -1.149740 1.833463
v -0.482606 -0.809839 1.786180
v -0.751668 -0.918437 1.503590
v -0.341331 -1.623304 1.434118
v -0.299172 -1.558342 1.530034
v -0.289303 -1.500375 1.617836
v -0.311531 -1.439327 1.713338
v -0.525372 -1.837704 1.817830
v -0.664741 -1.687015 1.873696
v -0.664741 -1.458977 1.980772
v -0.438207 -1.266021 2.055015
v -0.366911 -1.818502 1.981529
v -0.324753 -1.713106 2.029609
v -0.314884 -1.617907 2.074403
v -0.337112 -1.516068 2.124167
v -0.575040 -1.042766 3.026972
v -0.714408 -1.068519 2.868338
v -0.714408 -0.955343 2.676854
v -0.487874 -0.911992 2.599078
v -0.416579 -1.053067 3.003004
v -0.363147 -1.034771 2.908307
v -0.343996 -1.010239 2.830827
v -0.386779 -0.945663 2.729264
v -0.560381 -0.698321 2.976078
v -0.699749 -0.724074 2.817443
v -0.699749 -0.733662 2.676233
v -0.473215 -0.731573 2.605013
v -0.445161 -0.500859 2.923421
v -0.414926 -0.508159 2.840659
v -0.407848 -0.513902 2.765422
v -0.423790 -0.514190 2.713876
v -0.365799 -1.195300 2.647352
v -0.407958 -1.298396 2.716459
v -0.705787 -1.133441 2.532736
v -0.705787 -1.298577 2.630874
v -0.378158 -1.056940 2.675237
v -0.479253 -1.004300 2.555746
v -0.355930 -1.147533 2.624499
v -0.566419 -1.368325 2.671834
v -0.607372 2.753651 0.689712
v -0.982749 2.632873 0.189333
v -0.521802 3.882016 0.178911
v -0.844293 3.693329 -0.219321
v -0.609990 3.672630 2.144297
v -0.794579 3.555945 0.891901
v -0.259562 3.618762 0.939101
v -0.530317 3.175514 1.178632
v -0.572571 3.793184 0.872053
v -0.755606 3.571564 1.516737
v -0.328128 3.617622 1.580397
v -0.544461 3.344160 1.620983
v -0.578222 3.713326 1.582322
v -0.815447 3.668793 2.144907
v -0.387969 3.703850 2.139336
v -0.604302 3.430833 2.182720
v -0.785527 3.620178 1.830822
v -0.608142 3.755112 1.853436
v -0.358048 4.059279 1.870372
v -0.609990 4.059729 2.082784
v -0.815447 4.055892 2.083394
v -0.387969 4.090949 2.077823
v -0.638063 4.183997 2.063037
v -0.785527 4.025159 1.881838
v -0.608142 4.164384 1.931459
v -0.114826 4.876646 -2.179547
v -0.464565 4.870810 -2.228083
v -0.375493 4.829592 -2.484246
v -0.163487 5.765515 -1.460007
v -0.163487 5.650405 -1.280047
v -0.360732 5.510583 -1.594398
v -0.336045 5.454442 -1.341452
v -0.222945 5.417570 -1.156301
v -0.231422 5.488426 -1.680075
vn -0.0000 -0.0905 -0.9959
vn 0.5869 -0.2307 -0.7761
vn 0.0318 -0.2124 -0.9767
vn 0.5925 -0.0689 -0.8026
vn 0.9431 -0.1694 -0.2863
vn 0.9547 -0.0115 -0.2972
vn 0.9567 -0.0575 0.2854
vn 0.9467 0.0627 0.3159
vn 0.6249 0.1141 0.7723
vn 0.5805 0.1252 0.8046
vn -0.0000 0.2375 0.9714
vn -0.0000 -0.2141 -0.9768
vn 0.5989 -0.2977 -0.7434
vn 0.6003 -0.1418 -0.7871
vn 0.5559 0.6881 0.4663
vn 0.9700 0.2075 0.1269
vn 0.9643 0.2183 0.1496
vn 0.6214 0.0718 0.7802
vn 0.9448 0.1779 0.2750
vn 0.9510 0.0368 -0.3071
vn -0.0000 0.7783 0.6279
vn -0.0000 0.6054 0.7959
vn 0.9382 0.0391 -0.3439
vn 0.9042 0.4084 0.1254
vn 0.9357 0.2936 0.1955
vn 0.5457 0.6796 0.4902
vn 0.5603 0.6936 0.4528
vn -0.0000 0.4956 0.8686
vn -0.0000 0.8196 0.5729
vn 0.9440 -0.1118 -0.3105
vn 0.9319 0.3432 0.1177
vn -0.0000 -0.4360 -0.9000
vn 0.5795 -0.4822 -0.6570
vn 0.9346 0.2424 -0.2603
vn 0.4786 0.5535 -0.6816
vn 0.8527 0.4576 -0.2519
vn 0.9540 -0.0921 -0.2852
vn 0.9609 0.2186 0.1702
vn 0.6284 0.4234 0.6526
vn -0.0000 -0.6174 -0.7866
vn 0.5889 -0.3368 -0.7347
vn 0.9221 0.3006 0.2438
vn 0.9011 0.3435 0.2645
vn 0.5743 0.3131 0.7564
vn 0.5834 0.2774 0.7634
vn 0.3455 0.3326 -0.8775
vn -0.0000 0.5676 -0.8233
vn -0.0000 0.2994 0.9541
vn -0.0000 0.2133 0.9770
vn 0.8561 0.3719 0.3589
vn 0.5422 0.8397 0.0314
vn 0.5704 0.6538 0.4972
vn 0.5492 0.2204 0.8061
vn 0.3577 0.5054 0.7852
vn -0.0000 0.6629 -0.7487
vn 0.3041 0.7387 -0.6016
vn 0.4035 0.6360 -0.6577
vn -0.0000 0.1074 0.9942
vn -0.0000 0.5185 0.8551
vn 0.8021 0.5520 -0.2278
vn -0.0000 -0.4152 -0.9097
vn -0.0000 0.1124 -0.9937
vn 0.6887 0.2984 -0.6608
vn -0.0001 0.3167 0.9485
vn -0.2855 0.0408 0.9575
vn 0.4368 0.4062 0.8026
vn -0.7376 -0.6131 0.2831
vn -0.9897 -0.1430 -0.0026
vn -0.9912 -0.1279 -0.0340
vn 0.7209 -0.5134 -0.4655
vn 0.4656 -0.8481 -0.2528
vn -0.1133 -0.9918 -0.0584
vn 0.9455 0.0057 0.3255
vn 0.9186 -0.3875 -0.0782
vn 0.9231 -0.3632 -0.1265
vn 0.9985 -0.0110 -0.0540
vn -0.2252 -0.8123 0.5380
vn -0.1132 -0.9919 -0.0584
vn 0.5863 -0.0637 -0.8076
vn 0.9308 -0.3414 -0.1310
vn 0.7126 0.1804 -0.6780
vn 0.9989 -0.0292 -0.0378
vn 0.0728 0.5377 0.8400
vn 0.9960 -0.0632 -0.0627
vn 0.6518 -0.2512 0.7156
vn -1.0000 0.0005 -0.0021
vn -0.6611 0.7481 0.0574
vn 0.0728 0.5379 0.8398
vn 0.9897 -0.1145 0.0862
vn 0.4079 -0.3719 -0.8339
vn -1.0000 0.0019 -0.0043
vn -0.5806 -0.5986 0.5518
vn -0.4239 0.1946 0.8846
vn -0.5807 -0.5986 0.5518
vn -0.6927 -0.7061 -0.1470
vn -0.6927 -0.7061 -0.1471
vn -0.4239 0.1947 0.8845
vn 0.8061 0.2233 0.5480
vn -0.5480 0.8257 0.1340
vn -0.6610 0.7481 0.0575
vn -0.5481 0.8257 0.1339
vn -0.0019 -0.6402 0.7682
vn -0.5983 -0.6182 0.5098
vn 0.3292 -0.8404 -0.4305
vn -0.2143 -0.9744 0.0676
vn -0.0011 -0.9781 0.2080
vn -0.7474 -0.4939 0.4443
vn -0.7420 -0.6344 -0.2167
vn 0.9592 -0.2672 -0.0925
vn 0.9649 -0.0207 0.2619
vn 0.9777 0.1023 0.1833
vn -0.3114 0.5154 0.7984
vn -0.9917 0.0739 0.1052
vn -0.9937 -0.0295 0.1083
vn -0.9444 0.3198 -0.0762
vn 0.8798 -0.4746 0.0274
vn 0.9305 -0.3167 -0.1838
vn 0.2724 -0.9544 -0.1218
vn -0.4948 -0.8437 0.2082
vn 0.1327 0.4344 0.8909
vn -0.8824 0.3313 -0.3341
vn -0.3159 0.2816 -0.9060
vn -0.3504 0.6588 -0.6657
vn 0.8609 0.3668 -0.3525
vn 0.8696 -0.2306 0.4367
vn 0.8642 -0.4250 0.2693
vn -0.5279 -0.6623 0.5317
vn -0.9527 -0.1022 0.2862
vn -0.9376 -0.2647 0.2255
vn -0.9502 -0.2838 0.1286
vn 0.9441 0.3242 -0.0604
vn -0.3318 0.9355 -0.1214
vn 0.8746 0.1689 -0.4544
vn 0.8719 0.4375 0.2201
vn -0.0994 0.6848 0.7219
vn -0.3556 0.8540 0.3797
vn -0.8932 0.1709 -0.4159
vn -0.5153 0.7732 -0.3696
vn -0.3802 0.4958 -0.7808
vn -0.9996 0.0266 -0.0011
vn -0.9968 0.0704 -0.0387
vn 0.2981 -0.7839 0.5446
vn 0.2907 -0.2695 0.9181
vn -0.5616 -0.2863 0.7763
vn 0.7607 0.3972 -0.5135
vn 0.4092 0.3824 0.8285
vn -0.2641 0.2615 -0.9284
vn -0.0000 0.3195 0.9476
vn -0.0000 0.1494 0.9888
vn -0.0000 0.5980 0.8015
vn 0.2122 0.9733 0.0873
vn 0.0188 -0.8864 0.4626
vn -0.8662 0.3812 0.3230
vn -0.9596 0.2525 0.1238
vn 0.9966 0.0775 0.0280
vn 0.1297 0.9898 -0.0583
vn -0.0507 -0.9799 0.1931
vn 0.0516 0.5605 -0.8266
vn 0.6215 0.3645 -0.6935
vn 0.9549 -0.1287 -0.2677
vn 0.7534 -0.1772 0.6333
vn 0.0161 -0.7254 0.6881
vn -0.6901 -0.1392 0.7102
vn -0.9883 -0.0329 -0.1492
vn -0.6697 0.4319 -0.6041
vn -0.0000 0.1569 0.9876
vn -0.6236 0.5426 0.5628
vn 0.0549 0.8083 -0.5863
vn 0.1496 0.8683 0.4729
vn 0.7318 0.4526 0.5095
vn 0.3456 0.3327 -0.8774
vn -0.0056 0.9872 -0.1591
vn -0.0056 0.9873 -0.1590
vn -0.0000 0.9737 0.2280
vn -0.0000 0.8081 -0.5891
vn 0.0648 0.9768 0.2040
vn 0.0356 0.8458 0.5324
vn -0.0000 0.8515 0.5243
vn -0.5869 -0.2307 -0.7761
vn -0.9431 -0.1694 -0.2862
vn -0.5925 -0.0690 -0.8026
vn -0.9567 -0.0575 0.2854
vn -0.9547 -0.0115 -0.2973
vn -0.6249 0.1141 0.7723
vn -0.9467 0.0627 0.3159
vn -0.5805 0.1252 0.8046
vn -0.5989 -0.2977 -0.7434
vn -0.6003 -0.1417 -0.7871
vn -0.9699 0.2075 0.1270
vn -0.5559 0.6881 0.4663
vn -0.9643 0.2183 0.1496
vn -0.6213 0.0718 0.7803
vn -0.9449 0.1779 0.2749
vn -0.9510 0.0370 -0.3071
vn -0.9382 0.0391 -0.3439
vn -0.9357 0.2937 0.1954
vn -0.5457 0.6796 0.4902
vn -0.5603 0.6936 0.4528
vn -0.9440 -0.1118 -0.3105
vn -0.9319 0.3432 0.1177
vn -0.9042 0.4084 0.1254
vn -0.5794 -0.4822 -0.6571
vn -0.9346 0.2424 -0.2603
vn -0.4786 0.5535 -0.6816
vn -0.6887 0.2984 -0.6608
vn -0.9540 -0.0921 -0.2852
vn -0.9609 0.2185 0.1702
vn -0.6284 0.4234 0.6526
vn -0.5889 -0.3368 -0.7347
vn -0.9221 0.3006 0.2438
vn -0.8527 0.4576 -0.2519
vn -0.5743 0.3131 0.7564
vn -0.9011 0.3435 0.2645
vn -0.3455 0.3326 -0.8775
vn -0.5834 0.2774 0.7634
vn -0.8561 0.3719 0.3589
vn -0.5422 0.8397 0.0314
vn -0.8022 0.5520 -0.2278
vn -0.5492 0.2204 0.8061
vn -0.5704 0.6538 0.4972
vn -0.3041 0.7386 -0.6016
vn -0.4035 0.6360 -0.6577
vn -0.3577 0.5054 0.7852
vn 0.2832 0.0408 0.9582
vn -0.4370 0.4063 0.8025
vn 0.7376 -0.6131 0.2831
vn 0.9897 -0.1430 -0.0026
vn 0.7474 -0.4939 0.4443
vn -0.7240 -0.5105 -0.4639
vn -0.4662 -0.8478 -0.2526
vn -0.9186 -0.3875 -0.0782
vn -0.9455 0.0058 0.3255
vn -0.9231 -0.3632 -0.1265
vn 0.5863 -0.0638 -0.8076
vn 0.9999 0.0142 0.0021
vn 0.7125 0.1804 -0.6781
vn -0.9324 -0.3374 -0.1296
vn 0.0317 -0.2123 -0.9767
vn -0.9988 -0.0306 -0.0382
vn 0.0729 0.5378 0.8399
vn 0.6517 -0.2512 0.7157
vn 1.0000 0.0010 0.0014
vn 0.4080 -0.3720 -0.8338
vn -0.2251 -0.8124 0.5379
vn 0.6517 -0.2513 0.7157
vn -0.2251 -0.8124 0.5378
vn -0.9909 -0.1080 0.0802
vn -0.9962 -0.0609 -0.0621
vn 0.0728 0.5378 0.8399
vn 0.4080 -0.3718 -0.8338
vn -0.6928 -0.7060 -0.1470
vn -0.4237 0.1948 0.8846
vn -0.8066 0.2228 0.5474
vn -0.5481 0.8256 0.1339
vn -0.6612 0.7480 0.0574
vn -0.0019 -0.1139 0.9935
vn -0.3292 -0.8404 -0.4305
vn 0.2138 -0.9745 0.0685
vn 0.7420 -0.6344 -0.2168
vn -0.9592 -0.2672 -0.0925
vn -0.9649 -0.0207 0.2619
vn 0.5976 -0.6190 0.5096
vn 0.3113 0.5155 0.7984
vn -0.1327 0.4344 0.8909
vn 0.9917 0.0739 0.1052
vn 0.9937 -0.0295 0.1083
vn 0.9912 -0.1279 -0.0340
vn -0.8798 -0.4746 0.0274
vn -0.9777 0.1023 0.1833
vn -0.9305 -0.3167 -0.1838
vn -0.2724 -0.9544 -0.1218
vn 0.3159 0.2816 -0.9060
vn 0.8824 0.3313 -0.3341
vn 0.3504 0.6588 -0.6657
vn -0.8696 -0.2306 0.4367
vn -0.8609 0.3668 -0.3525
vn -0.8642 -0.4249 0.2694
vn 0.9527 -0.1023 0.2862
vn 0.5279 -0.6623 0.5317
vn 0.9376 -0.2647 0.2255
vn 0.4948 -0.8437 0.2082
vn -0.9441 0.3242 -0.0604
vn 0.3318 0.9355 -0.1214
vn 0.9502 -0.2838 0.1286
vn -0.8719 0.4375 0.2201
vn -0.8746 0.1689 -0.4544
vn 0.0995 0.6848 0.7219
vn 0.5616 -0.2863 0.7763
vn 0.8932 0.1709 -0.4159
vn 0.5154 0.7732 -0.3696
vn 0.9996 0.0266 -0.0011
vn 0.9968 0.0704 -0.0387
vn -0.2981 -0.7839 0.5446
vn -0.2907 -0.2695 0.9181
vn -0.7607 0.3972 -0.5135
vn 0.3802 0.4958 -0.7808
vn 0.2641 0.2615 -0.9284
vn -0.4092 0.3824 0.8285
vn 0.3556 0.8540 0.3797
vn 0.9444 0.3198 -0.0762
vn -0.2122 0.9733 0.0873
vn 0.8662 0.3812 0.3230
vn 0.9596 0.2525 0.1238
vn -0.0188 -0.8864 0.4626
vn -0.9966 0.0775 0.0280
vn -0.1297 0.9898 -0.0583
vn -0.6215 0.3645 -0.6935
vn -0.0516 0.5605 -0.8266
vn -0.9549 -0.1287 -0.2677
vn -0.0160 -0.7255 0.6881
vn -0.7534 -0.1771 0.6333
vn 0.9883 -0.0329 -0.1492
vn 0.0507 -0.9799 0.1931
vn 0.6697 0.4319 -0.6041
vn 0.6901 -0.1393 0.7101
vn -0.0549 0.8083 -0.5863
vn 0.6236 0.5426 0.5628
vn -0.7318 0.4526 0.5095
vn -0.1496 0.8683 0.4729
vn -0.3456 0.3327 -0.8774
vn 0.0056 0.9872 -0.1591
vn -0.6886 0.2986 -0.6608
vn -0.0648 0.9768 0.2040
vn -0.0356 0.8458 0.5323
vn 0.6886 0.2985 -0.6609
vn 0.0056 0.9873 -0.1590
vt 0.989297 0.568278
vt 0.886280 0.161662
vt 0.989297 0.161712
vt 0.874028 0.568813
vt 0.782066 0.169666
vt 0.760006 0.575332
vt 0.673867 0.182431
vt 0.877560 0.471048
vt 0.740114 0.047517
vt 0.894770 0.042630
vt 0.238249 0.216021
vt 0.009068 0.211722
vt 0.035870 0.138589
vt 0.804295 0.066863
vt 0.927512 0.273275
vt 0.749974 0.245970
vt 0.800290 0.213544
vt 0.943881 0.462355
vt 0.654063 0.321648
vt 0.727388 0.674719
vt 0.886165 0.659521
vt 0.894770 0.847995
vt 0.982265 0.872710
vt 0.883436 0.878408
vt 0.785622 0.901850
vt 0.689969 0.937551
vt 0.666894 0.761178
vt 0.088378 0.118031
vt 0.262043 0.261897
vt 0.111388 0.291583
vt 0.913000 0.435847
vt 0.697848 0.425729
vt 0.917253 0.599011
vt 0.787876 0.603829
vt 0.935480 0.761208
vt 0.789550 0.778187
vt 0.877593 0.647580
vt 0.773625 0.578006
vt 0.876605 0.572674
vt 0.716556 0.814685
vt 0.987608 0.818754
vt 0.790958 0.963790
vt 0.756419 0.323390
vt 0.921053 0.463310
vt 0.712535 0.484145
vt 0.910967 0.586593
vt 0.693339 0.649673
vt 0.931343 0.708597
vt 0.808548 0.165116
vt 0.950210 0.343101
vt 0.278662 0.573870
vt 0.146803 0.672951
vt 0.222334 0.554472
vt 0.870738 0.872161
vt 0.743419 0.811557
vt 0.870797 0.797249
vt 0.760574 0.731735
vt 0.874421 0.722425
vt 0.771676 0.655259
vt 0.877593 0.946759
vt 0.734767 0.885867
vt 0.278662 0.388936
vt 0.222334 0.406937
vt 0.183649 0.242411
vt 0.162114 0.246109
vt 0.081763 0.790175
vt 0.003316 0.720786
vt 0.003800 0.172315
vt 0.083379 0.212265
vt 0.003800 0.208555
vt 0.164388 0.361986
vt 0.108799 0.396700
vt 0.106443 0.317034
vt 0.133615 0.230237
vt 0.079725 0.214366
vt 0.001362 0.551106
vt 0.081678 0.457167
vt 0.103893 0.513769
vt 0.003800 0.249037
vt 0.049870 0.292640
vt 0.003800 0.289519
vt 0.172723 0.464356
vt 0.003800 0.136075
vt 0.096040 0.168762
vt 0.756763 0.956391
vt 0.627540 0.948621
vt 0.628216 0.896414
vt 0.205183 0.238714
vt 0.325225 0.408043
vt 0.740276 0.716651
vt 0.670168 0.660515
vt 0.713569 0.637786
vt 0.153867 0.185920
vt 0.194926 0.267087
vt 0.100073 0.245062
vt 0.806879 0.339918
vt 0.874673 0.517143
vt 0.861360 0.526815
vt 0.913187 0.282387
vt 0.902203 0.383960
vt 0.844581 0.373665
vt 0.767079 0.533736
vt 0.911791 0.493775
vt 0.872512 0.620968
vt 0.990061 0.531262
vt 0.991589 0.688134
vt 0.659613 0.120463
vt 0.717511 0.190810
vt 0.644802 0.164575
vt 0.746414 0.137853
vt 0.902210 0.218753
vt 0.803529 0.452559
vt 0.866671 0.831217
vt 0.706961 0.629997
vt 0.781691 0.737386
vt 0.837910 0.541960
vt 0.643458 0.540030
vt 0.651438 0.276392
vt 0.641279 0.524533
vt 0.095523 0.139646
vt 0.014773 0.223306
vt 0.861480 0.193429
vt 0.708840 0.347366
vt 0.778646 0.116174
vt 0.723350 0.248613
vt 0.828242 0.448413
vt 0.695632 0.495275
vt 0.782371 0.389169
vt 0.789804 0.615475
vt 0.730754 0.626708
vt 0.850711 0.407908
vt 0.710934 0.372122
vt 0.722265 0.392382
vt 0.689245 0.353288
vt 0.817919 0.757499
vt 0.651912 0.616141
vt 0.722419 0.421127
vt 0.638562 0.401697
vt 0.993475 0.472449
vt 0.955160 0.825846
vt 0.754058 0.798410
vt 0.643077 0.684631
vt 0.696756 0.836951
vt 0.977903 0.797600
vt 0.962420 0.790162
vt 0.978406 0.769439
vt 0.857588 0.712220
vt 0.643901 0.368832
vt 0.268545 0.318071
vt 0.242414 0.347203
vt 0.991589 0.324868
vt 0.869996 0.426785
vt 0.843659 0.422373
vt 0.847679 0.310718
vt 0.896813 0.509667
vt 0.844863 0.445354
vt 0.839261 0.331025
vt 0.909661 0.278817
vt 0.942089 0.846803
vt 0.968417 0.912768
vt 0.942146 0.906929
vt 0.929019 0.887346
vt 0.929032 0.864924
vt 0.756308 0.517599
vt 0.722859 0.453473
vt 0.770771 0.460424
vt 0.850845 0.540161
vt 0.871202 0.576864
vt 0.870355 0.578727
vt 0.937086 0.649964
vt 0.885375 0.581923
vt 0.982804 0.570108
vt 0.883050 0.574075
vt 0.874083 0.574365
vt 0.894950 0.282924
vt 0.961100 0.501072
vt 0.674472 0.437435
vt 0.937102 0.687410
vt 0.947399 0.738036
vt 0.904579 0.664507
vt 0.952410 0.307777
vt 0.768583 0.366425
vt 0.785996 0.628044
vt 0.616012 0.405523
vt 0.147652 0.311821
vt 0.202710 0.246006
vt 0.247915 0.275437
vt 0.247915 0.086304
vt 0.163476 0.195367
vt 0.106759 0.078825
vt 0.023122 0.245195
vt 0.152621 0.239999
vt 0.068089 0.320238
vt 0.872189 0.575402
vt 0.880173 0.590137
vt 0.859363 0.586552
vt 0.195942 0.197254
vt 0.179093 0.217304
vt 0.175079 0.223937
vt 0.176142 0.224343
vt 0.166327 0.251325
vt 0.177281 0.225095
vt 0.177972 0.226308
vt 0.155688 0.246401
vt 0.094211 0.335237
vt 0.015187 0.135090
vt 0.156509 0.215115
vt 0.153377 0.228181
vt 0.183745 0.219078
vt 0.173669 0.221138
vt 0.182187 0.228504
vt 0.299159 0.167469
vt 0.204521 0.315283
vt 0.192664 0.340669
vt 0.311491 0.079136
vt 0.148033 0.249962
vt 0.173154 0.287372
vt 0.290355 0.032164
vt 0.321779 0.017719
vt 0.310186 0.198720
vt 0.149192 0.270569
vt 0.274865 0.103939
vt 0.309101 0.141717
vt 0.196857 0.306114
vt 0.312813 0.114077
vt 0.126363 0.244294
vt 0.197967 0.330350
vt 0.704618 0.476513
vt 0.050663 0.147977
vt 0.153250 0.287257
vt 0.020926 0.259019
vt 0.729052 0.975994
vt 0.695638 0.936468
vt 0.729052 0.894737
vt 0.732312 0.845504
vt 0.724723 0.803195
vt 0.724779 0.894737
vt 0.179348 0.283131
vt 0.176682 0.191634
vt 0.283653 0.286638
vt 0.050905 0.305026
vt 0.043586 0.136035
vt 0.265901 0.289886
vt 0.702674 0.647277
vt 0.929284 0.635379
vt 0.732312 0.681384
vt 0.738655 0.603545
vt 0.748028 0.646313
vt 0.284461 0.194635
vt 0.126684 0.266280
vt 0.183290 0.085608
vt 0.228665 0.145439
vt 0.104052 0.262867
vt 0.154105 0.119437
vt 0.295582 0.203248
vt 0.148444 0.299150
vt 0.166886 0.159853
vt 0.181288 0.306621
vt 0.117395 0.277171
vt 0.125837 0.218694
vt 0.089524 0.179044
vt 0.171023 0.214882
vt 0.176870 0.136065
vt 0.200921 0.164486
vt 0.124356 0.179821
vt 0.119808 0.244014
vt 0.043989 0.220802
vt 0.153119 0.158355
vt 0.073229 0.149203
vt 0.047457 0.171445
vt 0.046015 0.177634
vt 0.121116 0.283352
vt 0.165328 0.291637
vt 0.049408 0.143103
vt 0.093800 0.126069
vt 0.307231 0.942562
vt 0.241178 0.981988
vt 0.003316 0.396746
vt 0.003316 0.463916
vt 0.081678 0.394707
vt 0.081678 0.318176
vt 0.003316 0.317860
vt 0.003316 0.207270
vt 0.066624 0.252452
vt 0.176222 0.477502
vt 0.306438 0.656638
vt 0.003316 0.814802
vt 0.108700 0.125260
vt 0.325225 0.598214
vt 0.660150 0.772192
vt 0.665758 0.164776
vt 0.748028 0.227385
vt 0.684321 0.115871
vt 0.705337 0.000000
vt 0.720242 0.252015
vt 0.748028 0.371118
vt 0.925007 0.219181
vt 0.978406 0.253767
vt 0.898237 0.446687
vt 0.213166 0.240152
vt 0.968417 0.839552
vt 0.704298 0.497854
vt 0.982804 0.197082
vt 0.294699 0.184149
vt 0.189837 0.296375
vt 0.115363 0.306752
vt 0.645721 0.584763
vt 0.208278 0.297800
vt 0.963214 0.114010
vt 0.979370 0.391540
vt 0.234308 0.101052
vt 0.658502 0.608711
vt 0.987608 0.225195
vt 0.738741 0.966794
vt 0.630708 0.803634
vt 0.750641 0.831714
vt 0.879023 0.090991
vt 0.851429 0.355498
vt 0.659735 0.440552
vt 0.780943 0.274252
vt 0.974331 0.751765
vt 0.178210 0.184044
vt 0.677617 0.795117
vt 0.672743 0.593853
vt 0.198132 0.303983
vt 0.205119 0.330892
vt 0.819736 0.660967
s 1
f 2/1/1 3/2/2 1/3/3
f 4/4/4 5/5/5 3/2/2
f 6/6/6 7/7/7 5/5/5
f 8/8/8 9/9/9 7/10/7
f 10/11/10 11/12/11 9/13/9
f 13/14/12 20/15/13 14/16/14
f 129/17/15 133/18/16 16/19/17
f 127/20/18 128/21/19 16/22/17
f 4/4/4 13/23/12 14/24/14
f 15/25/20 16/26/17 128/27/19
f 6/6/6 14/24/14 15/25/20
f 129/28/15 24/29/21 130/30/22
f 14/16/14 21/31/23 15/32/20
f 21/31/23 22/33/24 131/34/25
f 131/34/25 23/35/26 129/36/15
f 29/37/27 36/38/28 30/39/29
f 23/40/26 30/41/29 24/42/21
f 20/43/13 27/44/30 21/45/23
f 21/45/23 28/46/31 22/47/24
f 22/47/24 29/48/27 23/40/26
f 19/49/32 26/50/33 20/43/13
f 50/51/34 38/52/35 39/53/36
f 26/54/33 33/55/37 27/56/30
f 27/56/30 34/57/38 28/58/31
f 28/58/31 35/59/39 29/37/27
f 25/60/40 32/61/41 26/54/33
f 52/62/42 39/53/36 40/63/43
f 54/64/44 40/63/43 41/65/45
f 153/66/46 37/67/47 38/52/35
f 51/68/48 41/69/45 42/70/49
f 162/71/50 45/72/51 46/73/52
f 164/74/53 46/73/52 47/75/54
f 163/76/55 44/77/56 165/78/57
f 160/79/58 47/80/54 48/81/59
f 161/82/60 44/77/56 45/72/51
f 36/83/28 54/84/44 51/68/48
f 31/85/61 53/86/62 153/87/46
f 35/88/39 52/62/42 54/64/44
f 34/89/38 50/51/34 52/62/42
f 33/90/37 49/91/63 50/92/34
f 61/93/64 59/94/65 62/95/66
f 81/96/67 91/97/68 92/98/69
f 64/99/70 56/100/71 55/101/72
f 63/102/73 57/103/74 66/104/75
f 66/104/75 56/105/71 64/106/70
f 65/107/76 211/108/77 55/109/78
f 64/110/70 210/111/79 1/112/3
f 3/113/2 66/104/75 64/106/70
f 7/114/7 66/104/75 5/115/5
f 1/116/3 3/117/2 64/118/70
f 9/119/9 63/102/73 7/114/7
f 11/120/11 62/95/66 9/121/9
f 67/122/80 68/123/81 210/124/79
f 55/125/72 67/126/80 64/127/70
f 70/128/82 216/129/83 72/130/84
f 67/122/80 69/131/85 70/128/82
f 218/132/86 74/133/87 216/134/88
f 216/129/83 75/135/89 72/130/84
f 70/128/82 215/136/90 68/123/81
f 76/137/91 220/138/92 223/139/93
f 75/135/89 220/140/94 73/141/95
f 72/130/84 73/141/95 215/136/90
f 218/142/86 73/141/96 76/143/91
f 223/144/97 220/140/94 77/145/98
f 223/144/97 77/145/98 221/146/99
f 74/147/100 77/145/98 75/135/89
f 74/133/87 223/139/93 221/148/101
f 59/94/65 83/149/102 82/150/103
f 57/103/74 84/151/104 56/105/71
f 55/101/72 79/152/105 78/153/106
f 80/154/107 90/155/108 91/97/68
f 58/156/109 89/157/110 86/158/111
f 82/159/103 78/160/106 79/161/105
f 82/159/103 80/162/107 81/163/67
f 89/164/110 87/165/112 86/166/111
f 93/167/113 100/168/114 101/169/115
f 86/170/111 95/171/116 85/172/117
f 90/155/108 94/173/118 98/174/119
f 79/175/105 84/176/104 90/155/108
f 62/177/66 89/157/110 63/102/73
f 59/178/65 88/179/120 62/180/66
f 58/156/109 85/181/117 57/103/74
f 82/182/103 87/183/112 59/184/65
f 82/182/103 92/98/69 93/167/113
f 122/185/121 105/186/122 123/187/123
f 120/188/124 103/189/125 121/190/126
f 119/191/127 107/192/128 118/193/129
f 91/97/68 98/174/119 99/194/130
f 87/183/112 96/195/131 86/170/111
f 85/172/117 94/173/118 84/176/104
f 93/167/113 97/196/132 87/183/112
f 92/98/69 99/194/130 100/168/114
f 104/197/133 111/198/134 103/189/125
f 107/192/128 114/199/135 115/200/136
f 109/201/137 116/202/138 117/203/139
f 118/193/129 108/204/140 124/205/141
f 123/187/123 104/197/133 120/188/124
f 125/206/142 103/189/125 102/207/143
f 119/191/127 102/207/143 106/208/144
f 122/185/121 108/204/140 109/201/137
f 111/198/134 116/202/138 115/200/136
f 112/209/145 117/203/139 116/202/138
f 110/210/146 115/200/136 114/199/135
f 109/201/137 113/211/147 105/186/122
f 108/204/140 115/200/136 116/202/138
f 105/186/122 112/209/145 104/197/133
f 102/207/143 111/198/134 110/210/146
f 106/208/144 110/210/146 114/199/135
f 101/212/115 124/213/141 122/214/121
f 98/215/119 125/216/142 119/217/127
f 95/218/116 125/216/142 94/219/118
f 97/220/132 120/221/124 96/222/131
f 100/223/114 118/224/129 124/213/141
f 99/225/130 119/217/127 118/224/129
f 96/222/131 121/226/126 95/218/116
f 101/212/115 123/227/123 97/220/132
f 8/8/8 127/20/18 10/228/10
f 10/229/10 126/230/148 12/231/149
f 16/232/17 131/233/25 129/234/15
f 18/235/150 136/236/151 129/237/15
f 130/238/22 18/239/150 129/240/15
f 126/241/148 127/242/18 18/243/150
f 127/244/18 133/18/16 135/245/152
f 127/246/18 134/247/153 18/248/150
f 135/249/152 138/250/154 134/251/153
f 136/252/151 137/253/155 133/254/16
f 134/255/153 140/256/156 136/252/151
f 135/257/152 137/258/155 139/259/157
f 145/260/158 151/261/159 144/262/160
f 144/262/160 141/263/161 143/264/162
f 143/264/162 142/265/163 17/266/164
f 142/265/163 146/267/165 17/266/164
f 143/264/162 132/268/166 142/265/163
f 142/265/163 147/269/166 149/270/167
f 132/268/166 143/264/162 141/263/161
f 145/260/158 146/267/165 152/271/168
f 140/272/156 144/262/160 137/273/155
f 140/272/156 17/266/164 145/260/158
f 152/271/168 149/270/167 150/274/169
f 152/271/168 148/275/170 151/261/159
f 149/270/167 147/269/166 150/274/169
f 147/269/166 148/275/170 150/274/169
f 132/268/166 148/275/170 147/269/166
f 141/263/161 151/261/159 148/275/170
f 153/66/171 154/276/172 155/277/173
f 156/278/174 44/77/56 43/279/175
f 157/280/176 45/72/51 44/77/56
f 159/281/177 156/278/174 158/282/178
f 45/72/51 159/281/177 46/73/52
f 47/75/54 158/282/178 48/283/59
f 47/75/54 46/73/52 159/281/177
f 39/53/36 165/78/57 161/82/60
f 42/70/49 164/284/53 160/79/58
f 38/52/35 163/76/55 165/78/57
f 41/65/45 162/71/50 164/74/53
f 40/63/43 161/285/60 162/71/50
f 166/2/179 2/1/1 1/3/3
f 168/5/180 167/4/181 166/2/179
f 170/7/182 169/6/183 168/5/180
f 172/9/184 171/8/185 170/10/182
f 11/12/11 173/11/186 172/13/184
f 178/15/187 13/14/12 174/16/188
f 275/18/189 272/17/190 176/19/191
f 270/20/192 176/22/191 271/21/193
f 167/4/181 13/23/12 2/1/1
f 271/27/193 175/25/194 169/6/183
f 169/6/183 174/24/188 167/4/181
f 24/29/21 272/28/190 130/30/22
f 179/31/195 174/16/188 175/32/194
f 273/34/196 179/31/195 175/32/194
f 181/35/197 273/34/196 272/36/190
f 36/38/28 185/37/198 30/39/29
f 30/41/29 181/40/197 24/42/21
f 183/44/199 178/43/187 179/45/195
f 184/46/200 179/45/195 180/47/201
f 185/48/198 180/47/201 181/40/197
f 182/50/202 19/49/32 178/43/187
f 199/51/203 190/52/204 198/286/205
f 187/55/206 182/54/202 183/56/199
f 188/57/207 183/56/199 184/58/200
f 189/59/208 184/58/200 185/37/198
f 186/61/209 25/60/40 182/54/202
f 200/62/210 191/53/211 199/51/203
f 201/64/212 192/63/213 200/62/210
f 37/67/47 53/287/62 295/66/214
f 51/68/48 193/69/215 201/84/212
f 301/71/216 195/72/217 300/285/218
f 302/74/219 196/73/220 301/71/216
f 194/77/221 163/76/55 303/78/222
f 160/79/58 197/80/223 302/284/219
f 300/82/218 194/77/221 303/78/222
f 36/83/28 201/84/212 189/288/208
f 295/87/214 53/86/62 31/85/61
f 189/88/208 200/62/210 188/89/207
f 188/89/207 199/51/203 187/289/206
f 187/90/206 198/91/205 186/290/209
f 205/94/224 61/93/64 206/95/225
f 226/96/226 235/97/227 225/154/228
f 208/99/229 55/101/72 202/100/230
f 203/103/231 207/102/232 209/104/233
f 202/105/230 209/104/233 208/106/229
f 210/111/234 208/110/229 1/112/3
f 166/113/179 209/104/233 168/115/180
f 209/104/233 170/114/182 168/115/180
f 1/116/3 208/118/229 166/117/179
f 207/102/232 172/119/184 170/114/182
f 206/95/225 11/120/11 172/121/184
f 213/291/235 68/292/236 210/293/79
f 68/123/81 212/122/237 210/124/234
f 65/107/76 210/293/79 1/294/238
f 212/126/237 55/125/72 208/127/229
f 214/128/239 216/129/240 69/131/241
f 71/295/242 215/296/243 68/292/236
f 212/122/237 69/131/241 211/297/244
f 69/131/245 213/298/235 211/297/246
f 219/135/247 216/129/240 217/130/248
f 216/129/249 71/299/242 69/131/245
f 215/136/250 214/128/239 68/123/81
f 220/140/94 219/135/247 73/141/251
f 73/141/251 217/130/248 215/136/250
f 223/144/252 222/145/253 220/140/94
f 223/144/252 221/146/254 222/145/253
f 222/145/253 74/147/255 219/135/247
f 205/94/224 83/149/102 60/300/256
f 228/151/257 203/103/231 202/105/230
f 55/101/72 224/152/258 202/100/230
f 225/154/228 234/155/259 224/175/258
f 204/156/260 233/157/261 207/102/232
f 227/159/262 78/160/106 83/301/102
f 225/162/228 227/159/262 226/163/226
f 233/164/261 231/165/263 232/302/264
f 237/167/265 244/168/266 236/98/267
f 239/171/268 230/170/269 229/172/270
f 234/155/259 238/173/271 228/176/257
f 224/175/258 228/176/257 202/303/230
f 233/157/261 206/177/225 207/102/232
f 232/179/264 205/178/224 206/180/225
f 229/181/270 204/156/260 203/103/231
f 231/183/263 227/182/262 205/184/224
f 227/182/262 236/98/267 226/96/226
f 249/186/272 266/185/273 267/187/274
f 247/189/275 264/188/276 265/190/277
f 251/192/278 263/191/279 262/193/280
f 235/97/227 242/174/281 234/155/259
f 240/195/282 231/183/263 230/170/269
f 238/173/271 229/172/270 228/176/257
f 241/196/283 237/167/265 231/183/263
f 236/98/267 243/194/284 235/97/227
f 255/198/285 248/197/286 247/189/275
f 251/192/278 258/199/287 250/208/288
f 253/201/289 260/202/290 252/204/291
f 252/204/291 262/193/280 268/205/292
f 248/197/286 267/187/274 264/188/276
f 269/206/293 247/189/275 265/190/277
f 263/191/279 246/207/294 269/206/293
f 266/185/273 252/204/291 268/205/292
f 255/198/285 260/202/290 256/209/295
f 256/209/295 261/203/296 257/211/297
f 254/210/298 259/200/299 255/198/285
f 257/211/297 253/201/289 249/186/272
f 252/204/291 259/200/299 251/192/278
f 256/209/295 249/186/272 248/197/286
f 246/207/294 255/198/285 247/189/275
f 250/208/288 254/210/298 246/207/294
f 245/212/300 268/213/292 244/223/266
f 242/215/281 269/216/293 238/219/271
f 269/216/293 239/218/268 238/219/271
f 264/221/276 241/220/283 240/222/282
f 244/223/266 262/224/280 243/225/284
f 243/225/284 263/217/279 242/215/281
f 265/226/277 240/222/282 239/218/268
f 267/227/274 245/212/300 241/220/283
f 270/20/192 171/8/185 173/228/186
f 126/230/148 173/229/186 12/231/149
f 176/232/191 272/234/190 273/233/196
f 278/236/301 18/235/150 272/237/190
f 130/238/22 272/240/190 18/239/150
f 126/241/148 18/243/150 270/242/192
f 270/244/192 275/18/189 176/19/191
f 276/247/302 270/246/192 18/248/150
f 280/250/303 277/249/304 276/251/302
f 279/253/305 278/252/301 275/254/189
f 282/256/306 276/255/302 278/252/301
f 277/257/304 279/258/305 275/304/189
f 293/261/307 287/260/308 286/262/309
f 285/264/310 283/263/311 286/262/309
f 177/266/312 285/264/310 281/305/313
f 288/267/314 284/265/315 177/266/312
f 285/264/310 284/265/315 274/268/166
f 284/265/315 289/269/166 274/268/166
f 274/268/166 283/263/311 285/264/310
f 287/260/308 288/267/314 177/266/312
f 286/262/309 282/272/306 279/273/305
f 282/272/306 177/266/312 280/306/303
f 294/271/316 291/270/317 288/267/314
f 290/275/318 294/271/316 293/261/307
f 291/270/317 292/274/319 289/269/166
f 289/269/166 292/274/319 290/275/318
f 274/268/166 290/275/318 283/263/311
f 283/263/311 293/261/307 286/262/309
f 295/66/320 296/276/321 198/286/322
f 156/278/174 194/77/221 298/280/323
f 298/280/323 194/77/221 195/72/217
f 156/278/174 299/281/324 158/282/178
f 299/281/324 195/72/217 196/73/220
f 158/282/178 197/75/223 48/283/59
f 197/75/223 299/281/324 196/73/220
f 191/53/211 303/78/222 190/52/204
f 42/70/49 302/284/219 193/69/215
f 190/52/204 163/76/55 37/67/47
f 193/65/215 301/71/216 192/63/213
f 192/63/213 300/285/218 191/53/211
f 2/1/1 4/4/4 3/2/2
f 4/4/4 6/6/6 5/5/5
f 6/6/6 8/307/8 7/7/7
f 8/8/8 10/228/10 9/9/9
f 10/11/10 12/308/149 11/12/11
f 13/14/12 19/309/32 20/15/13
f 129/17/15 136/310/151 133/18/16
f 4/4/4 2/1/1 13/23/12
f 128/27/19 8/307/8 6/6/6
f 6/6/6 15/25/20 128/27/19
f 6/6/6 4/4/4 14/24/14
f 129/28/15 23/311/26 24/29/21
f 14/16/14 20/15/13 21/31/23
f 131/34/25 16/312/17 15/32/20
f 15/32/20 21/31/23 131/34/25
f 131/34/25 22/33/24 23/35/26
f 29/37/27 35/59/39 36/38/28
f 23/40/26 29/48/27 30/41/29
f 20/43/13 26/50/33 27/44/30
f 21/45/23 27/44/30 28/46/31
f 22/47/24 28/46/31 29/48/27
f 19/49/32 25/313/40 26/50/33
f 50/51/34 49/286/63 38/52/35
f 26/54/33 32/61/41 33/55/37
f 27/56/30 33/55/37 34/57/38
f 28/58/31 34/57/38 35/59/39
f 25/60/40 31/314/61 32/61/41
f 52/62/42 50/51/34 39/53/36
f 54/64/44 52/62/42 40/63/43
f 38/52/35 49/286/63 153/66/46
f 153/66/46 53/287/62 37/67/47
f 51/68/48 54/84/44 41/69/45
f 162/71/50 161/285/60 45/72/51
f 164/74/53 162/71/50 46/73/52
f 163/76/55 43/279/175 44/77/56
f 160/79/58 164/284/53 47/80/54
f 161/82/60 165/78/57 44/77/56
f 36/83/28 35/288/39 54/84/44
f 49/315/63 32/316/41 153/87/46
f 32/316/41 31/85/61 153/87/46
f 35/88/39 34/89/38 52/62/42
f 34/89/38 33/289/37 50/51/34
f 33/90/37 32/290/41 49/91/63
f 61/93/64 60/300/256 59/94/65
f 81/96/67 80/154/107 91/97/68
f 63/102/73 58/156/109 57/103/74
f 66/104/75 57/103/74 56/105/71
f 65/107/76 213/291/235 211/108/77
f 64/110/70 67/317/80 210/111/79
f 3/113/2 5/115/5 66/104/75
f 7/114/7 63/102/73 66/104/75
f 9/119/9 62/177/66 63/102/73
f 11/120/11 61/93/64 62/95/66
f 67/122/80 70/128/82 68/123/81
f 55/125/72 211/318/244 67/126/80
f 70/128/82 69/131/85 216/129/83
f 67/122/80 211/297/244 69/131/85
f 218/132/86 76/137/91 74/133/87
f 216/129/83 74/147/100 75/135/89
f 70/128/82 72/130/84 215/136/90
f 76/137/91 73/319/96 220/138/92
f 75/135/89 77/145/98 220/140/94
f 72/130/84 75/135/89 73/141/95
f 218/142/86 215/136/250 73/141/96
f 74/147/100 221/146/99 77/145/98
f 74/133/87 76/137/91 223/139/93
f 59/94/65 60/300/256 83/149/102
f 57/103/74 85/181/117 84/151/104
f 55/101/72 56/100/71 79/152/105
f 80/154/107 79/175/105 90/155/108
f 58/156/109 63/102/73 89/157/110
f 82/159/103 83/301/102 78/160/106
f 82/159/103 79/161/105 80/162/107
f 89/164/110 88/302/120 87/165/112
f 93/167/113 92/98/69 100/168/114
f 86/170/111 96/195/131 95/171/116
f 90/155/108 84/176/104 94/173/118
f 79/175/105 56/303/71 84/176/104
f 62/177/66 88/320/120 89/157/110
f 59/178/65 87/321/112 88/179/120
f 58/156/109 86/158/111 85/181/117
f 82/182/103 93/167/113 87/183/112
f 82/182/103 81/96/67 92/98/69
f 122/185/121 109/201/137 105/186/122
f 120/188/124 104/197/133 103/189/125
f 119/191/127 106/208/144 107/192/128
f 91/97/68 90/155/108 98/174/119
f 87/183/112 97/196/132 96/195/131
f 85/172/117 95/171/116 94/173/118
f 93/167/113 101/169/115 97/196/132
f 92/98/69 91/97/68 99/194/130
f 104/197/133 112/209/145 111/198/134
f 107/192/128 106/208/144 114/199/135
f 109/201/137 108/204/140 116/202/138
f 118/193/129 107/192/128 108/204/140
f 123/187/123 105/186/122 104/197/133
f 125/206/142 121/190/126 103/189/125
f 119/191/127 125/206/142 102/207/143
f 122/185/121 124/205/141 108/204/140
f 111/198/134 112/209/145 116/202/138
f 112/209/145 113/211/147 117/203/139
f 110/210/146 111/198/134 115/200/136
f 109/201/137 117/203/139 113/211/147
f 108/204/140 107/192/128 115/200/136
f 105/186/122 113/211/147 112/209/145
f 102/207/143 103/189/125 111/198/134
f 106/208/144 102/207/143 110/210/146
f 101/212/115 100/223/114 124/213/141
f 98/215/119 94/219/118 125/216/142
f 95/218/116 121/226/126 125/216/142
f 97/220/132 123/227/123 120/221/124
f 100/223/114 99/225/130 118/224/129
f 99/225/130 98/215/119 119/217/127
f 96/222/131 120/221/124 121/226/126
f 101/212/115 122/214/121 123/227/123
f 8/8/8 128/21/19 127/20/18
f 10/229/10 127/322/18 126/230/148
f 18/235/150 134/323/153 136/236/151
f 127/244/18 16/19/17 133/18/16
f 127/246/18 135/324/152 134/247/153
f 135/249/152 139/325/157 138/250/154
f 136/252/151 140/256/156 137/253/155
f 134/255/153 138/326/154 140/256/156
f 135/257/152 133/304/16 137/258/155
f 145/260/158 152/271/168 151/261/159
f 143/264/162 139/305/157 144/262/160
f 139/305/157 137/273/155 144/262/160
f 17/266/164 138/306/154 139/305/157
f 139/305/157 143/264/162 17/266/164
f 142/265/163 149/270/167 146/267/165
f 142/265/163 132/268/166 147/269/166
f 145/260/158 17/266/164 146/267/165
f 140/272/156 145/260/158 144/262/160
f 140/272/156 138/306/154 17/266/164
f 152/271/168 146/267/165 149/270/167
f 152/271/168 150/274/169 148/275/170
f 132/268/166 141/263/161 148/275/170
f 141/263/161 144/262/160 151/261/159
f 153/66/171 49/286/325 154/276/172
f 156/278/174 157/280/176 44/77/56
f 159/281/177 157/280/176 156/278/174
f 45/72/51 157/280/176 159/281/177
f 47/75/54 159/281/177 158/282/178
f 39/53/36 38/52/35 165/78/57
f 42/70/49 41/69/45 164/284/53
f 38/52/35 37/67/47 163/76/55
f 41/65/45 40/63/43 162/71/50
f 40/63/43 39/53/36 161/285/60
f 166/2/179 167/4/181 2/1/1
f 168/5/180 169/6/183 167/4/181
f 170/7/182 171/307/185 169/6/183
f 172/9/184 173/228/186 171/8/185
f 11/12/11 12/308/149 173/11/186
f 178/15/187 19/309/32 13/14/12
f 275/18/189 278/310/301 272/17/190
f 167/4/181 174/24/188 13/23/12
f 169/6/183 171/307/185 271/27/193
f 271/27/193 176/26/191 175/25/194
f 169/6/183 175/25/194 174/24/188
f 24/29/21 181/311/197 272/28/190
f 179/31/195 178/15/187 174/16/188
f 175/32/194 176/312/191 273/34/196
f 273/34/196 180/33/201 179/31/195
f 181/35/197 180/33/201 273/34/196
f 36/38/28 189/59/208 185/37/198
f 30/41/29 185/48/198 181/40/197
f 183/44/199 182/50/202 178/43/187
f 184/46/200 183/44/199 179/45/195
f 185/48/198 184/46/200 180/47/201
f 182/50/202 25/313/40 19/49/32
f 199/51/203 191/53/211 190/52/204
f 187/55/206 186/61/209 182/54/202
f 188/57/207 187/55/206 183/56/199
f 189/59/208 188/57/207 184/58/200
f 186/61/209 31/314/61 25/60/40
f 200/62/210 192/63/213 191/53/211
f 201/64/212 193/65/215 192/63/213
f 295/66/214 198/286/205 190/52/204
f 190/52/204 37/67/47 295/66/214
f 51/68/48 42/70/49 193/69/215
f 301/71/216 196/73/220 195/72/217
f 302/74/219 197/75/223 196/73/220
f 194/77/221 43/279/175 163/76/55
f 160/79/58 48/81/59 197/80/223
f 300/82/218 195/72/217 194/77/221
f 36/83/28 51/68/48 201/84/212
f 31/85/61 186/316/209 295/87/214
f 186/316/209 198/315/205 295/87/214
f 189/88/208 201/64/212 200/62/210
f 188/89/207 200/62/210 199/51/203
f 187/90/206 199/92/203 198/91/205
f 205/94/224 60/300/256 61/93/64
f 226/96/226 236/98/267 235/97/227
f 203/103/231 204/156/260 207/102/232
f 202/105/230 203/103/231 209/104/233
f 210/111/234 212/317/237 208/110/229
f 166/113/179 208/106/229 209/104/233
f 209/104/233 207/102/232 170/114/182
f 207/102/232 206/177/225 172/119/184
f 206/95/225 61/93/64 11/120/11
f 213/291/235 71/295/242 68/292/236
f 68/123/81 214/128/239 212/122/237
f 65/107/76 213/291/235 210/293/79
f 212/126/237 211/318/244 55/125/72
f 214/128/239 217/130/248 216/129/240
f 71/295/242 218/132/86 215/296/243
f 212/122/237 214/128/239 69/131/241
f 69/131/245 71/299/242 213/298/235
f 219/135/247 74/147/255 216/129/240
f 216/129/249 218/327/86 71/299/242
f 215/136/250 217/130/248 214/128/239
f 220/140/94 222/145/253 219/135/247
f 73/141/251 219/135/247 217/130/248
f 222/145/253 221/146/254 74/147/255
f 205/94/224 227/150/262 83/149/102
f 228/151/257 229/181/270 203/103/231
f 55/101/72 78/153/106 224/152/258
f 225/154/228 235/97/227 234/155/259
f 204/156/260 230/158/269 233/157/261
f 227/159/262 224/161/258 78/160/106
f 225/162/228 224/161/258 227/159/262
f 233/164/261 230/166/269 231/165/263
f 237/167/265 245/169/300 244/168/266
f 239/171/268 240/195/282 230/170/269
f 234/155/259 242/174/281 238/173/271
f 224/175/258 234/155/259 228/176/257
f 233/157/261 232/320/264 206/177/225
f 232/179/264 231/321/263 205/178/224
f 229/181/270 230/158/269 204/156/260
f 231/183/263 237/167/265 227/182/262
f 227/182/262 237/167/265 236/98/267
f 249/186/272 253/201/289 266/185/273
f 247/189/275 248/197/286 264/188/276
f 251/192/278 250/208/288 263/191/279
f 235/97/227 243/194/284 242/174/281
f 240/195/282 241/196/283 231/183/263
f 238/173/271 239/171/268 229/172/270
f 241/196/283 245/169/300 237/167/265
f 236/98/267 244/168/266 243/194/284
f 255/198/285 256/209/295 248/197/286
f 251/192/278 259/200/299 258/199/287
f 253/201/289 261/203/296 260/202/290
f 252/204/291 251/192/278 262/193/280
f 248/197/286 249/186/272 267/187/274
f 269/206/293 246/207/294 247/189/275
f 263/191/279 250/208/288 246/207/294
f 266/185/273 253/201/289 252/204/291
f 255/198/285 259/200/299 260/202/290
f 256/209/295 260/202/290 261/203/296
f 254/210/298 258/199/287 259/200/299
f 257/211/297 261/203/296 253/201/289
f 252/204/291 260/202/290 259/200/299
f 256/209/295 257/211/297 249/186/272
f 246/207/294 254/210/298 255/198/285
f 250/208/288 258/199/287 254/210/298
f 245/212/300 266/214/273 268/213/292
f 242/215/281 263/217/279 269/216/293
f 269/216/293 265/226/277 239/218/268
f 264/221/276 267/227/274 241/220/283
f 244/223/266 268/213/292 262/224/280
f 243/225/284 262/224/280 263/217/279
f 265/226/277 264/221/276 240/222/282
f 267/227/274 266/214/273 245/212/300
f 270/20/192 271/21/193 171/8/185
f 126/230/148 270/322/192 173/229/186
f 278/236/301 276/323/302 18/235/150
f 270/244/192 277/245/304 275/18/189
f 276/247/302 277/324/304 270/246/192
f 280/250/303 281/325/313 277/249/304
f 279/253/305 282/256/306 278/252/301
f 282/256/306 280/326/303 276/255/302
f 277/257/304 281/259/313 279/258/305
f 293/261/307 294/271/316 287/260/308
f 279/273/305 281/305/313 286/262/309
f 281/305/313 285/264/310 286/262/309
f 281/305/313 280/306/303 177/266/312
f 177/266/312 284/265/315 285/264/310
f 288/267/314 291/270/317 284/265/315
f 284/265/315 291/270/317 289/269/166
f 287/260/308 294/271/316 288/267/314
f 286/262/309 287/260/308 282/272/306
f 282/272/306 287/260/308 177/266/312
f 294/271/316 292/274/319 291/270/317
f 290/275/318 292/274/319 294/271/316
f 274/268/166 289/269/166 290/275/318
f 283/263/311 290/275/318 293/261/307
f 295/66/320 297/277/326 296/276/321
f 156/278/174 43/279/175 194/77/221
f 156/278/174 298/280/323 299/281/324
f 299/281/324 298/280/323 195/72/217
f 158/282/178 299/281/324 197/75/223
f 191/53/211 300/82/218 303/78/222
f 42/70/49 160/79/58 302/284/219
f 190/52/204 303/78/222 163/76/55
f 193/65/215 302/74/219 301/71/216
f 192/63/213 301/71/216 300/285/218
